<?xml version="1.0" encoding="UTF-8"?><svg id="phone" xmlns="http://www.w3.org/2000/svg" viewBox="0 0 75.69 75.64"><defs><style>.cls-1{fill:#040000;}</style></defs><g id="phone2"><path class="cls-1" d="m57.48,75.64c-1.06,0-2.68-.17-4.95-.52-2.28-.35-5.09-1.21-8.35-2.56-3.23-1.34-6.94-3.37-11.01-6.03-4.07-2.66-8.47-6.37-13.05-11-3.63-3.58-6.7-7.07-9.1-10.36-2.4-3.28-4.36-6.37-5.83-9.18-1.47-2.81-2.59-5.4-3.34-7.71-.74-2.3-1.25-4.32-1.52-6C.06,20.56-.04,19.22.01,18.18c.05-.86.07-1.36.08-1.48,0-.06,0-.12.01-.18.12-.85.4-1.72.81-2.59.43-.89.97-1.64,1.62-2.22L12.77,1.47c.97-.97,2.12-1.47,3.41-1.47.96,0,1.83.29,2.57.85.63.47,1.18,1.07,1.63,1.77.02.03.04.06.05.09l8.28,15.7c.61,1.08.78,2.29.51,3.59-.26,1.23-.82,2.28-1.67,3.13l-3.72,3.72s-.01.04-.02.06c-.02.05-.03.08-.03.11.2.91.61,1.97,1.23,3.16.59,1.18,1.52,2.64,2.76,4.36,1.24,1.72,3.04,3.73,5.35,5.98,2.27,2.33,4.3,4.14,6.04,5.41,1.74,1.27,3.21,2.21,4.35,2.79,1.37.7,2.08.93,2.44,1l.72.14s.05-.02.08-.03c.02,0,.04-.01.05-.02l4.33-4.41s.04-.04.07-.06c1.17-1.04,2.56-1.56,4.12-1.56,1,0,1.86.18,2.54.53.11.03.21.07.29.12l14.93,8.82c1.42.88,2.28,2.03,2.56,3.43,0,.03.01.06.01.09.21,1.58-.3,3.03-1.46,4.19l-10.29,10.21c-.53.59-1.28,1.13-2.17,1.57-.86.42-1.74.69-2.59.81-.06,0-.12.01-.19.01-.02,0-.15.01-.33.03-.3.03-.68.04-1.14.04ZM2.72,16.83c0,.23-.03.73-.08,1.5-.05.83.05,2.03.3,3.55.24,1.55.72,3.44,1.42,5.61.7,2.16,1.76,4.62,3.16,7.3,1.41,2.69,3.3,5.67,5.62,8.85,2.32,3.17,5.29,6.55,8.83,10.05,4.47,4.52,8.72,8.1,12.64,10.66,3.93,2.57,7.49,4.52,10.57,5.8,3.07,1.27,5.67,2.08,7.74,2.39,2.11.32,3.64.49,4.56.49.36,0,.66-.01.89-.03.19-.02.34-.03.44-.04.57-.09,1.17-.28,1.77-.57.59-.28,1.07-.62,1.42-1.01l10.33-10.26c.57-.57.8-1.19.71-1.94-.14-.65-.58-1.19-1.33-1.65l-14.72-8.69c-.1-.03-.19-.07-.27-.11-.21-.13-.63-.28-1.41-.28-.9,0-1.67.29-2.35.88l-4.37,4.45c-.26.26-.59.45-1.02.59-.52.18-.85.23-1.19.16l-.97-.19c-.77-.15-1.79-.56-3.12-1.24-1.28-.65-2.82-1.64-4.7-3.01-1.86-1.36-4-3.27-6.35-5.67-2.39-2.33-4.28-4.46-5.62-6.29-1.33-1.83-2.33-3.41-2.97-4.71-.77-1.48-1.28-2.85-1.51-4.05-.02-.08-.02-.16-.02-.25,0-.31.06-.63.18-1,.14-.43.34-.76.59-1.02l3.79-3.79c.49-.49.8-1.08.96-1.82.14-.67.06-1.24-.25-1.79L18.13,3.99c-.27-.41-.59-.76-.96-1.04-.29-.22-.61-.32-.99-.32-.58,0-1.07.22-1.55.7L4.35,13.61c-.44.4-.78.87-1.06,1.46-.29.6-.48,1.19-.57,1.75Zm44.11,34.98h0,0Zm-23.07-22.88h0s0,0,0,0Z"/></g></svg>