<?xml version="1.0" encoding="UTF-8"?><svg id="_レイヤー_2" xmlns="http://www.w3.org/2000/svg" viewBox="0 0 76.08 50.88"><defs><style>.cls-1{fill:#040000;}</style></defs><g id="_レイヤー_1-2"><g><path class="cls-1" d="m74.88,50.88H1.19c-.66,0-1.19-.53-1.19-1.19V1.19C0,.53.53,0,1.19,0h73.69c.66,0,1.19.53,1.19,1.19v48.5c0,.66-.53,1.19-1.19,1.19ZM2.39,48.5h71.31V2.39H2.39v46.11Z"/><path class="cls-1" d="m38.04,35.96c-.29,0-.58-.1-.8-.31L.39,2.08C.03,1.74-.1,1.22.08.76c.18-.46.62-.76,1.11-.76h73.69c.49,0,.93.3,1.11.76.18.46.06.98-.31,1.31l-36.85,33.57c-.23.21-.52.31-.8.31ZM4.27,2.39l33.77,30.77L71.8,2.39H4.27Z"/><path class="cls-1" d="m74.88,50.88H1.19c-.51,0-.97-.33-1.13-.82-.16-.49,0-1.02.42-1.33l29.2-21.89c.53-.39,1.28-.29,1.67.24.4.53.29,1.28-.24,1.67L4.77,48.5h66.53l-26-19.5c-.53-.4-.63-1.14-.24-1.67.4-.53,1.14-.63,1.67-.24l28.87,21.65c.41.31.58.84.42,1.33-.16.49-.62.82-1.13.82Z"/></g></g></svg>